<svg width="12" height="16" viewBox="0 0 12 16" fill="none" xmlns="http://www.w3.org/2000/svg">
<path d="M6.05191 12.3466C4.99159 12.3466 4.07315 12.145 3.29658 11.7418C2.53494 11.3236 1.94505 10.7337 1.52689 9.9721C1.10874 9.19553 0.884728 8.26962 0.85486 7.19437C0.839926 6.97036 0.832458 6.67168 0.832458 6.29832C0.832458 5.92497 0.839926 5.62629 0.85486 5.40228C0.884728 4.32703 1.10874 3.40858 1.52689 2.64695C1.94505 1.87038 2.53494 1.28048 3.29658 0.877261C4.07315 0.459107 4.99159 0.250031 6.05191 0.250031C6.91809 0.250031 7.65732 0.369503 8.26962 0.608449C8.89685 0.847393 9.41208 1.15354 9.81529 1.52689C10.2185 1.90024 10.5172 2.30346 10.7113 2.73655C10.9204 3.16964 11.0324 3.58033 11.0474 3.96861C11.0623 4.11795 11.0175 4.23742 10.9129 4.32703C10.8084 4.41663 10.6815 4.46143 10.5321 4.46143H9.45688C9.30754 4.46143 9.19553 4.43157 9.12086 4.37183C9.04619 4.29716 8.97152 4.17769 8.89685 4.01341C8.62804 3.28164 8.26215 2.76642 7.7992 2.46774C7.33624 2.16906 6.76128 2.01972 6.07431 2.01972C5.17827 2.01972 4.4465 2.296 3.87901 2.84856C3.32645 3.40112 3.02776 4.28969 2.98296 5.51429C2.96803 6.05191 2.96803 6.5746 2.98296 7.08236C3.02776 8.32189 3.32645 9.21793 3.87901 9.77049C4.4465 10.3081 5.17827 10.5769 6.07431 10.5769C6.76128 10.5769 7.33624 10.4276 7.7992 10.1289C8.26215 9.83023 8.62804 9.315 8.89685 8.58323C8.97152 8.41896 9.04619 8.30695 9.12086 8.24722C9.19553 8.17255 9.30754 8.13521 9.45688 8.13521H10.5321C10.6815 8.13521 10.8084 8.18002 10.9129 8.26962C11.0175 8.35922 11.0623 8.4787 11.0474 8.62804C11.0324 8.94165 10.9652 9.26273 10.8457 9.59128C10.7263 9.91983 10.5321 10.2558 10.2633 10.5993C10.0094 10.9279 9.68835 11.2266 9.30007 11.4954C8.91178 11.7493 8.44136 11.9583 7.8888 12.1226C7.35117 12.2719 6.73888 12.3466 6.05191 12.3466Z" fill="#252525"/>
<path d="M0.832458 14.7677C0.832458 14.3632 1.16034 14.0353 1.5648 14.0353H10.3185C10.7229 14.0353 11.0508 14.3632 11.0508 14.7677C11.0508 15.1721 10.7229 15.5 10.3185 15.5H1.5648C1.16034 15.5 0.832458 15.1721 0.832458 14.7677Z" fill="#252525"/>
</svg>
